<mxfile host="app.diagrams.net" modified="2021-11-10T13:25:06.233Z" agent="5.0 (Windows NT 10.0; Win64; x64) AppleWebKit/537.36 (KHTML, like Gecko) Chrome/95.0.4638.69 Safari/537.36" etag="cdZ3m8Vls-njf2sLnACa" version="15.7.2" type="github">
  <diagram id="EnDL1ll4FUiYGXrpYYfZ" name="Page-1">
    <mxGraphModel dx="920" dy="551" grid="1" gridSize="10" guides="1" tooltips="1" connect="1" arrows="1" fold="1" page="1" pageScale="1" pageWidth="827" pageHeight="1169" math="0" shadow="0">
      <root>
        <mxCell id="0" />
        <mxCell id="1" parent="0" />
        <mxCell id="Mi1PvQfAcSfVdItSmfn1-4" value="" style="edgeStyle=orthogonalEdgeStyle;rounded=0;orthogonalLoop=1;jettySize=auto;html=1;" edge="1" parent="1" source="Mi1PvQfAcSfVdItSmfn1-2" target="Mi1PvQfAcSfVdItSmfn1-3">
          <mxGeometry relative="1" as="geometry" />
        </mxCell>
        <mxCell id="Mi1PvQfAcSfVdItSmfn1-2" value="&lt;font style=&quot;font-size: 20px&quot;&gt;Start&lt;/font&gt;" style="rounded=1;whiteSpace=wrap;html=1;fontSize=20;fillColor=#2c4d76;strokeColor=#56517e;fontColor=#FFFFFF;" vertex="1" parent="1">
          <mxGeometry x="681" y="165" width="140" height="70" as="geometry" />
        </mxCell>
        <mxCell id="Mi1PvQfAcSfVdItSmfn1-6" value="" style="edgeStyle=orthogonalEdgeStyle;rounded=0;orthogonalLoop=1;jettySize=auto;html=1;fontSize=20;" edge="1" parent="1" source="Mi1PvQfAcSfVdItSmfn1-3" target="Mi1PvQfAcSfVdItSmfn1-5">
          <mxGeometry relative="1" as="geometry" />
        </mxCell>
        <mxCell id="Mi1PvQfAcSfVdItSmfn1-12" value="" style="edgeStyle=orthogonalEdgeStyle;rounded=0;orthogonalLoop=1;jettySize=auto;html=1;fontSize=20;" edge="1" parent="1" source="Mi1PvQfAcSfVdItSmfn1-3" target="Mi1PvQfAcSfVdItSmfn1-11">
          <mxGeometry relative="1" as="geometry" />
        </mxCell>
        <mxCell id="Mi1PvQfAcSfVdItSmfn1-3" value="ESP32" style="html=1;rounded=1;whiteSpace=wrap;fontStyle=1;strokeColor=#2C4D76;" vertex="1" parent="1">
          <mxGeometry x="500" y="170" width="120" height="60" as="geometry" />
        </mxCell>
        <mxCell id="Mi1PvQfAcSfVdItSmfn1-10" value="" style="edgeStyle=orthogonalEdgeStyle;rounded=0;orthogonalLoop=1;jettySize=auto;html=1;fontSize=20;" edge="1" parent="1" source="Mi1PvQfAcSfVdItSmfn1-5" target="Mi1PvQfAcSfVdItSmfn1-9">
          <mxGeometry relative="1" as="geometry" />
        </mxCell>
        <mxCell id="Mi1PvQfAcSfVdItSmfn1-5" value="4G Wifi router" style="whiteSpace=wrap;html=1;rounded=1;fontStyle=1;strokeColor=#2C4D76;" vertex="1" parent="1">
          <mxGeometry x="500" y="30" width="120" height="60" as="geometry" />
        </mxCell>
        <mxCell id="Mi1PvQfAcSfVdItSmfn1-9" value="Adafruit" style="ellipse;shape=cloud;whiteSpace=wrap;html=1;rounded=1;verticalAlign=middle;fontStyle=1;strokeColor=#2C4D76;" vertex="1" parent="1">
          <mxGeometry x="300" y="20" width="120" height="80" as="geometry" />
        </mxCell>
        <mxCell id="Mi1PvQfAcSfVdItSmfn1-14" value="" style="edgeStyle=orthogonalEdgeStyle;rounded=0;orthogonalLoop=1;jettySize=auto;html=1;fontSize=20;" edge="1" parent="1" source="Mi1PvQfAcSfVdItSmfn1-11" target="Mi1PvQfAcSfVdItSmfn1-13">
          <mxGeometry relative="1" as="geometry" />
        </mxCell>
        <mxCell id="Mi1PvQfAcSfVdItSmfn1-11" value="DHT11 fugitgheds sensor og temperatur" style="whiteSpace=wrap;html=1;rounded=1;fontStyle=1;strokeColor=#2C4D76;" vertex="1" parent="1">
          <mxGeometry x="175" y="170" width="120" height="60" as="geometry" />
        </mxCell>
        <mxCell id="Mi1PvQfAcSfVdItSmfn1-24" value="" style="edgeStyle=orthogonalEdgeStyle;rounded=0;orthogonalLoop=1;jettySize=auto;html=1;fontSize=20;" edge="1" parent="1" source="Mi1PvQfAcSfVdItSmfn1-13" target="Mi1PvQfAcSfVdItSmfn1-23">
          <mxGeometry relative="1" as="geometry" />
        </mxCell>
        <mxCell id="Mi1PvQfAcSfVdItSmfn1-31" value="Ja" style="edgeLabel;html=1;align=center;verticalAlign=middle;resizable=0;points=[];fontSize=12;fontStyle=1" vertex="1" connectable="0" parent="Mi1PvQfAcSfVdItSmfn1-24">
          <mxGeometry x="-0.2213" y="-1" relative="1" as="geometry">
            <mxPoint as="offset" />
          </mxGeometry>
        </mxCell>
        <mxCell id="Mi1PvQfAcSfVdItSmfn1-26" value="" style="edgeStyle=orthogonalEdgeStyle;rounded=0;orthogonalLoop=1;jettySize=auto;html=1;fontSize=20;entryX=0.605;entryY=1.099;entryDx=0;entryDy=0;entryPerimeter=0;" edge="1" parent="1" source="Mi1PvQfAcSfVdItSmfn1-13" target="Mi1PvQfAcSfVdItSmfn1-2">
          <mxGeometry relative="1" as="geometry">
            <mxPoint x="760" y="290" as="targetPoint" />
            <Array as="points">
              <mxPoint x="235" y="350" />
              <mxPoint x="765" y="350" />
            </Array>
          </mxGeometry>
        </mxCell>
        <mxCell id="Mi1PvQfAcSfVdItSmfn1-27" value="&lt;font style=&quot;font-size: 12px&quot;&gt;Nej&lt;/font&gt;" style="edgeLabel;html=1;align=center;verticalAlign=middle;resizable=0;points=[];fontSize=20;fontStyle=1" vertex="1" connectable="0" parent="Mi1PvQfAcSfVdItSmfn1-26">
          <mxGeometry x="-0.3342" y="-1" relative="1" as="geometry">
            <mxPoint x="6" y="-1" as="offset" />
          </mxGeometry>
        </mxCell>
        <mxCell id="Mi1PvQfAcSfVdItSmfn1-13" value="Hvis fugtigheds niveau er over 55.0 og temperaturen er over 42 grader på spilleren." style="whiteSpace=wrap;html=1;rounded=1;fontStyle=1;strokeColor=#2C4D76;" vertex="1" parent="1">
          <mxGeometry x="170" y="270" width="130" height="60" as="geometry" />
        </mxCell>
        <mxCell id="Mi1PvQfAcSfVdItSmfn1-33" value="" style="edgeStyle=orthogonalEdgeStyle;rounded=0;orthogonalLoop=1;jettySize=auto;html=1;fontSize=12;" edge="1" parent="1" source="Mi1PvQfAcSfVdItSmfn1-23" target="Mi1PvQfAcSfVdItSmfn1-32">
          <mxGeometry relative="1" as="geometry" />
        </mxCell>
        <mxCell id="Mi1PvQfAcSfVdItSmfn1-23" value="&lt;br&gt;&lt;span style=&quot;color: rgb(0, 0, 0); font-family: helvetica; font-size: 12px; font-style: normal; letter-spacing: normal; text-align: center; text-indent: 0px; text-transform: none; word-spacing: 0px; background-color: rgb(248, 249, 250); display: inline; float: none;&quot;&gt;Så lyser en Led-ring rød, som sidder på vesten.&lt;/span&gt;&lt;br&gt;" style="whiteSpace=wrap;html=1;rounded=1;fontStyle=1;strokeColor=#2C4D76;" vertex="1" parent="1">
          <mxGeometry x="10" y="270" width="120" height="60" as="geometry" />
        </mxCell>
        <mxCell id="Mi1PvQfAcSfVdItSmfn1-32" value="Samtidig som Led lysen så starter der en buzzer.&amp;nbsp;" style="whiteSpace=wrap;html=1;rounded=1;fontStyle=1;strokeColor=#2C4D76;" vertex="1" parent="1">
          <mxGeometry x="60" y="380" width="120" height="60" as="geometry" />
        </mxCell>
        <mxCell id="Mi1PvQfAcSfVdItSmfn1-42" value="" style="edgeStyle=orthogonalEdgeStyle;rounded=0;orthogonalLoop=1;jettySize=auto;html=1;fontSize=12;entryX=0.55;entryY=0.95;entryDx=0;entryDy=0;entryPerimeter=0;" edge="1" parent="1" source="Mi1PvQfAcSfVdItSmfn1-35" target="Mi1PvQfAcSfVdItSmfn1-9">
          <mxGeometry relative="1" as="geometry">
            <mxPoint x="370" y="290" as="targetPoint" />
            <Array as="points">
              <mxPoint x="366" y="120" />
            </Array>
          </mxGeometry>
        </mxCell>
        <mxCell id="Mi1PvQfAcSfVdItSmfn1-47" value="" style="edgeStyle=orthogonalEdgeStyle;rounded=0;orthogonalLoop=1;jettySize=auto;html=1;fontSize=12;entryX=0;entryY=0.75;entryDx=0;entryDy=0;" edge="1" parent="1" source="Mi1PvQfAcSfVdItSmfn1-35" target="Mi1PvQfAcSfVdItSmfn1-5">
          <mxGeometry relative="1" as="geometry">
            <mxPoint x="460" y="20" as="targetPoint" />
          </mxGeometry>
        </mxCell>
        <mxCell id="Mi1PvQfAcSfVdItSmfn1-35" value="GPS som viser spillernes lokation på banen samt hastidhed.&amp;nbsp;" style="whiteSpace=wrap;html=1;rounded=1;fontStyle=1;strokeColor=#2C4D76;" vertex="1" parent="1">
          <mxGeometry x="400" y="100" width="120" height="60" as="geometry" />
        </mxCell>
        <mxCell id="Mi1PvQfAcSfVdItSmfn1-43" value="" style="edgeStyle=orthogonalEdgeStyle;rounded=0;orthogonalLoop=1;jettySize=auto;html=1;fontSize=20;entryX=1;entryY=0.5;entryDx=0;entryDy=0;" edge="1" parent="1" source="Mi1PvQfAcSfVdItSmfn1-3" target="Mi1PvQfAcSfVdItSmfn1-35">
          <mxGeometry relative="1" as="geometry">
            <mxPoint x="570" y="180" as="sourcePoint" />
            <mxPoint x="570" y="99.99999999999989" as="targetPoint" />
          </mxGeometry>
        </mxCell>
      </root>
    </mxGraphModel>
  </diagram>
</mxfile>
